<svg width="1200" height="360" viewBox="0 0 1200 360" fill="none" xmlns="http://www.w3.org/2000/svg">
  <defs>
    <linearGradient id="bg" x1="0" y1="0" x2="1200" y2="360" gradientUnits="userSpaceOnUse">
      <stop stop-color="#030712"/>
      <stop offset="0.48" stop-color="#082F49"/>
      <stop offset="1" stop-color="#064E3B"/>
    </linearGradient>
    <linearGradient id="accent" x1="110" y1="70" x2="1090" y2="300" gradientUnits="userSpaceOnUse">
      <stop stop-color="#38BDF8"/>
      <stop offset="0.52" stop-color="#6EE7B7"/>
      <stop offset="1" stop-color="#A78BFA"/>
    </linearGradient>
  </defs>

  <rect width="1200" height="360" rx="30" fill="url(#bg)"/>
  <circle cx="1080" cy="75" r="185" fill="#38BDF8" opacity="0.12"/>
  <circle cx="120" cy="310" r="205" fill="#6EE7B7" opacity="0.11"/>
  <circle cx="945" cy="315" r="120" fill="#A78BFA" opacity="0.10"/>

  <rect x="62" y="54" width="1076" height="252" rx="32" fill="#020617" opacity="0.82"/>
  <rect x="62" y="54" width="1076" height="252" rx="32" stroke="url(#accent)" stroke-width="3" opacity="0.95"/>

  <g transform="translate(95 84)">
    <rect width="142" height="142" rx="36" fill="#0F172A" stroke="#38BDF8" stroke-width="3"/>
    <text x="71" y="69" fill="#E5F4FF" font-family="Arial, sans-serif" font-size="48" font-weight="900" text-anchor="middle" dominant-baseline="middle">RS</text>
    <rect x="22" y="96" width="98" height="27" rx="13" fill="#020617" stroke="#6EE7B7" stroke-width="1.5"/>
    <text x="71" y="114" fill="#6EE7B7" font-family="Arial, sans-serif" font-size="10" font-weight="800" text-anchor="middle">DATA ENGINEER</text>
  </g>

  <text x="270" y="112" fill="#E5F4FF" font-family="Arial, sans-serif" font-size="48" font-weight="900">Rohith S</text>
  <text x="270" y="154" fill="#6EE7B7" font-family="Arial, sans-serif" font-size="26" font-weight="700">Data Engineer II | Azure | Databricks | PySpark | Reltio MDM</text>
  <text x="270" y="196" fill="#CBD5E1" font-family="Arial, sans-serif" font-size="22" font-weight="600">I build pipelines that are validated, monitored, retried, and explainable.</text>
  <text x="270" y="229" fill="#94A3B8" font-family="Arial, sans-serif" font-size="18" font-weight="500">API ingestion • Data Quality • Medallion Architecture • CI/CD • Observability</text>

  <g transform="translate(270 258)">
    <rect x="0" y="0" width="152" height="36" rx="18" fill="#38BDF8" opacity="0.24"/>
    <text x="76" y="24" fill="#E0F2FE" font-family="Arial, sans-serif" font-size="14" font-weight="800" text-anchor="middle">Production DQ</text>
    <rect x="166" y="0" width="136" height="36" rx="18" fill="#6EE7B7" opacity="0.24"/>
    <text x="234" y="24" fill="#DCFCE7" font-family="Arial, sans-serif" font-size="14" font-weight="800" text-anchor="middle">Lakehouse</text>
    <rect x="316" y="0" width="118" height="36" rx="18" fill="#F97316" opacity="0.24"/>
    <text x="375" y="24" fill="#FFEDD5" font-family="Arial, sans-serif" font-size="14" font-weight="800" text-anchor="middle">PySpark</text>
    <rect x="448" y="0" width="132" height="36" rx="18" fill="#EF4444" opacity="0.24"/>
    <text x="514" y="24" fill="#FEE2E2" font-family="Arial, sans-serif" font-size="14" font-weight="800" text-anchor="middle">Databricks</text>
    <rect x="594" y="0" width="108" height="36" rx="18" fill="#3B82F6" opacity="0.24"/>
    <text x="648" y="24" fill="#DBEAFE" font-family="Arial, sans-serif" font-size="14" font-weight="800" text-anchor="middle">Azure</text>
  </g>
</svg>
